<?xml version="1.0" standalone="no"?>
<!DOCTYPE svg PUBLIC "-//W3C//DTD SVG 1.1//EN" "http://www.w3.org/Graphics/SVG/1.1/DTD/svg11.dtd" >
<svg xmlns="http://www.w3.org/2000/svg" xmlns:xlink="http://www.w3.org/1999/xlink" version="1.1">
<metadata>
Created by FontForge 20170731 at Wed Jan 15 01:04:04 2020
 By Aleksey,,,
Copyright (c) 2020 by Fontastica. All rights reserved.
</metadata>
<defs>
<font id="Impulse-Light" horiz-adv-x="421" >
  <font-face 
    font-family="Impulse Light"
    font-weight="300"
    font-stretch="normal"
    units-per-em="1000"
    panose-1="0 0 4 0 0 0 0 0 0 0"
    ascent="800"
    descent="-200"
    x-height="589"
    cap-height="910"
    bbox="-157 -275 1119 976"
    underline-thickness="50"
    underline-position="-175"
    unicode-range="U+000D-2212"
  />
<missing-glyph horiz-adv-x="617" 
d="M45 -10v930h527v-930h-527zM308 509l198 365h-395zM521 113v684l-184 -342zM96 115l183 340l-183 339v-679zM309 401l-197 -364h394z" />
    <glyph glyph-name=".notdef" horiz-adv-x="617" 
d="M45 -10v930h527v-930h-527zM308 509l198 365h-395zM521 113v684l-184 -342zM96 115l183 340l-183 339v-679zM309 401l-197 -364h394z" />
    <glyph glyph-name="uni0000" horiz-adv-x="0" 
 />
    <glyph glyph-name="nonmarkingreturn" horiz-adv-x="333" 
 />
    <glyph glyph-name="CR" unicode="&#xd;" horiz-adv-x="0" 
 />
    <glyph glyph-name="space" unicode=" " horiz-adv-x="264" 
 />
    <glyph glyph-name="exclam" unicode="!" horiz-adv-x="160" 
d="M61 217h38l9 197q6 88 6 112v362h-68v-362q0 -2 5 -112zM112 88h-64v-80h64v80z" />
    <glyph glyph-name="quotedbl" unicode="&#x22;" horiz-adv-x="374" 
d="M56 889h101l-18 -242h-66zM215 889h102l-19 -242h-66z" />
    <glyph glyph-name="numbersign" unicode="#" horiz-adv-x="416" 
d="M233 8h44l25 269h61l3 43h-61l29 310h61l3 41h-61l21 217h-44l-21 -217h-138l20 217h-44l-20 -217h-59l-4 -41h59l-28 -310h-58l-4 -43h58l-25 -269h44l26 269h138zM152 630h138l-29 -310h-138z" />
    <glyph glyph-name="dollar" unicode="$" horiz-adv-x="403" 
d="M363 683q0 170 -115 198l-24 5v64h-45v-63l-23 -6q-114 -30 -114 -200q0 -82 30 -134.5t87 -107.5l48 -45q30 -32 43 -50q46 -63 46 -138q0 -122 -97 -122q-99 0 -99 122v44h-61v-34q0 -173 116 -201l24 -6v-62h45v62l24 6q116 28 116 201q0 82 -29.5 134.5t-86.5 107.5
q-32 30 -47 45q-28 28 -44 50q-46 63 -46 137q0 124 96 124q70 0 89 -69q5 -17 7 -50v-12h60z" />
    <glyph glyph-name="percent" unicode="%" horiz-adv-x="718" 
d="M54 470v293q0 128 107 128q106 0 106 -128v-293q0 -128 -106 -128q-107 0 -107 128zM182 23l307 861h42l-308 -861h-41zM104 769v-305q0 -71 57 -71q56 0 56 71v305q0 72 -56 72q-57 0 -57 -72zM452 144v293q0 128 106 128q107 0 107 -128v-293q0 -128 -107 -128
q-106 0 -106 128zM502 443v-305q0 -71 56 -71q57 0 57 71v305q0 71 -57 71q-56 0 -56 -71z" />
    <glyph glyph-name="ampersand" unicode="&#x26;" horiz-adv-x="439" 
d="M394 511v-77h-33v-401h-63v23q-5 -13 -17 -21t-31 -10.5t-32 -3.5t-37.5 0t-29.5 1q-56 0 -81 43.5t-25 135.5v91q0 73 22 113t68 65q-90 47 -90 192v17q0 100 36.5 147.5t117.5 47.5h120v-64h-118q-89 0 -89 -112v-67q0 -120 101 -120h80v100h68v-100h33zM293 434h-73
q-55 0 -81.5 -33.5t-26.5 -104.5v-91q0 -54 23.5 -83.5t66.5 -29.5q42 0 66.5 27t24.5 75v240z" />
    <glyph glyph-name="quotesingle" unicode="'" horiz-adv-x="206" 
d="M52 889h102l-18 -242h-66z" />
    <glyph glyph-name="parenleft" unicode="(" horiz-adv-x="233" 
d="M214 888h-10q-87 0 -118.5 -38.5t-31.5 -134.5v-532q0 -97 31.5 -136t118.5 -39h10v58q-48 3 -70 27t-22 90v532q0 65 22 89t70 26v58z" />
    <glyph glyph-name="parenright" unicode=")" horiz-adv-x="233" 
d="M27 888h-9v-58q47 -2 70 -26t23 -89v-532q0 -66 -22.5 -90t-70.5 -27v-58h9q87 0 119.5 39t32.5 136v532q0 96 -32.5 134.5t-119.5 38.5z" />
    <glyph glyph-name="asterisk" unicode="*" horiz-adv-x="454" 
d="M223 662l-30 222h68l-30 -222l180 102l23 -76l-200 -38l143 -156l-56 -46l-94 201l-94 -201l-56 46l143 156l-200 38l23 76z" />
    <glyph glyph-name="plus" unicode="+" horiz-adv-x="404" 
d="M217 469v182h-30v-182h-158v-41h158v-186h30v186h158v41h-158z" />
    <glyph glyph-name="comma" unicode="," horiz-adv-x="213" 
d="M56 18v115h101v-109l-51 -134h-33l33 128h-50z" />
    <glyph glyph-name="hyphen" unicode="-" horiz-adv-x="256" 
d="M40 484v-71h174v71h-174z" />
    <glyph glyph-name="period" unicode="." horiz-adv-x="213" 
d="M157 133v-115h-101v115h101z" />
    <glyph glyph-name="slash" unicode="/" horiz-adv-x="403" 
d="M6 8l316 891h75l-316 -891h-75z" />
    <glyph glyph-name="zero" unicode="0" horiz-adv-x="404" 
d="M36 694v-491q0 -97 40.5 -151.5t125.5 -54.5t126 54.5t41 151.5v491q0 97 -41 151.5t-126 54.5t-125.5 -54.5t-40.5 -151.5zM104 194v509q0 30 6 55t29.5 47.5t62.5 22.5t62.5 -22.5t29.5 -47.5t6 -55v-509q0 -30 -6 -55t-29.5 -47.5t-62.5 -22.5t-62.5 22.5t-29.5 47.5
t-6 55z" />
    <glyph glyph-name="one" unicode="1" horiz-adv-x="399" 
d="M247 888l-123 -102v-58h100v-720h68v880h-45z" />
    <glyph glyph-name="two" unicode="2" horiz-adv-x="403" 
d="M290 775q13 -30 13 -87q0 -99 -43 -183q-17 -33 -44 -70l-48 -63q-41 -50 -62.5 -82t-40.5 -85.5t-19 -112.5v-84h313v71h-241l-4 27q-1 9 -1 25q0 61 46 130q7 11 90 119q57 76 89.5 149t32.5 165q0 206 -162 206q-163 0 -163 -206v-60h61v69q0 21 3.5 40t13 40t30.5 33
t51 12q60 0 85 -53z" />
    <glyph glyph-name="three" unicode="3" horiz-adv-x="404" 
d="M202 -3q-163 0 -163 206v47h61v-56q0 -125 99 -125q60 0 83 52q14 30 14 85v76q0 151 -116 151h-12v71h19q81 0 102 74q6 18 8 58q0 9 -0.5 26.5t-0.5 25.5q0 57 -13 86q-24 54 -84 54q-77 0 -95 -80q-5 -24 -5 -57v-17h-60v20q0 206 163 206q162 0 162 -206v-25
q0 -81 -18.5 -123.5t-75.5 -70.5q43 -26 60.5 -52t26.5 -73q7 -32 7 -71v-76q0 -206 -162 -206z" />
    <glyph glyph-name="four" unicode="4" horiz-adv-x="405" 
d="M94 910h-68v-736h240v-174h66v174h62v74h-62v662h-68l2 -662h-172v662z" />
    <glyph glyph-name="five" unicode="5" horiz-adv-x="402" 
d="M210 598q70 0 112 -46.5t42 -123.5v-225q0 -206 -161 -206q-151 0 -162 175h61q3 -28 15 -52q27 -50 81 -50q98 0 98 124v227q-1 46 -25.5 82.5t-73.5 36.5q-84 0 -95 -96l-2 -40h-59l20 484h283v-71h-226l-11 -244l18 9q31 16 85 16z" />
    <glyph glyph-name="six" unicode="6" horiz-adv-x="404" 
d="M368 701q-2 199 -163 199q-167 0 -167 -214v-483q0 -97 40.5 -151.5t125.5 -54.5t126 54.5t41 151.5v173q0 77 -42.5 123.5t-112.5 46.5q-54 0 -85 -16l-25 -13v164q0 60 14 91q25 56 89 56q69 0 90 -66q5 -16 7 -49q0 -2 0.5 -6t0.5 -6h61zM106 363q0 30 6 55t29.5 47.5
t62.5 22.5q50 0 74.5 -39t24.5 -86v-169q0 -30 -6.5 -55.5t-30 -47t-62.5 -21.5q-98 0 -98 124v169z" />
    <glyph glyph-name="seven" unicode="7" horiz-adv-x="404" 
d="M365 888h-327v-71h267l-191 -809h66l185 810v70z" />
    <glyph glyph-name="eight" unicode="8" horiz-adv-x="404" 
d="M202 -3q87 0 129.5 54t42.5 152v73q-2 48 -6 70q-15 72 -60 102l-42 27l42 26q66 42 66 163v30q0 98 -42.5 152t-129.5 54t-129.5 -54t-42.5 -152q0 -76 12.5 -121.5t52.5 -70.5l43 -27l-42 -27q-66 -44 -66 -171v-74q0 -98 42.5 -152t129.5 -54zM98 636v52
q0 24 3.5 46.5t13 50t32 44t55.5 16.5t55.5 -16.5t32 -44t13 -50t3.5 -46.5v-52q0 -121 -104 -121t-104 121zM98 206v88q0 129 104 129t104 -129v-88q0 -23 -4 -45t-13.5 -47.5t-32 -40.5t-54.5 -15t-54.5 15t-32.5 40.5t-13.5 47t-3.5 45.5z" />
    <glyph glyph-name="nine" unicode="9" horiz-adv-x="404" 
d="M35 196q3 -199 164 -199q167 0 167 214v483q0 97 -40.5 151.5t-125.5 54.5t-126 -54.5t-41 -151.5v-173q0 -77 42.5 -123.5t112.5 -46.5q54 0 85 16l25 13v-164q0 -60 -14 -91q-25 -56 -89 -56q-69 0 -90 66q-8 26 -8 49v12h-62zM298 534q0 -30 -6 -55t-29.5 -47.5
t-62.5 -22.5q-50 0 -74.5 39t-24.5 86v169q0 50 21.5 87t77.5 37q98 0 98 -124v-169z" />
    <glyph glyph-name="colon" unicode=":" horiz-adv-x="213" 
d="M157 618v-115h-101v115h101zM157 133v-115h-101v115h101z" />
    <glyph glyph-name="semicolon" unicode=";" horiz-adv-x="213" 
d="M157 618v-115h-101v115h101zM56 18v115h101v-109l-51 -134h-33l33 128h-50z" />
    <glyph glyph-name="less" unicode="&#x3c;" horiz-adv-x="403" 
d="M34 417l323 -136v38l-318 130l318 129v38l-323 -137v-62z" />
    <glyph glyph-name="equal" unicode="=" horiz-adv-x="403" 
d="M363 578h-323v-41h323v41zM363 360h-323v-41h323v41z" />
    <glyph glyph-name="greater" unicode="&#x3e;" horiz-adv-x="403" 
d="M46 281l323 136v62l-323 137v-38l318 -129l-318 -130v-38z" />
    <glyph glyph-name="question" unicode="?" horiz-adv-x="362" 
d="M135 217h56q-1 7 -1 21q0 80 45 159q5 9 11.5 19.5t15 23.5t12.5 20q24 40 34 63q35 76 35 171q0 206 -159 206q-161 0 -161 -206v-61h61v70q0 125 95 125q96 0 96 -125q0 -97 -31 -171q-15 -39 -40 -80q-5 -9 -17 -30t-18 -32q-35 -66 -35 -146q0 -5 0.5 -14t0.5 -13z
M135 88v-80h63v80h-63z" />
    <glyph glyph-name="at" unicode="@" horiz-adv-x="790" 
d="M546 199q-25 0 -46.5 11.5t-22.5 19.5l-10 2q-5 -11 -15.5 -18t-28 -8.5t-28 -2t-33.5 1.5t-27 2q-90 3 -75 163l13 130q17 164 109 161h23h41t37 -6.5t21 -19.5l10 1l-2 19h50l-33 -343q-1 -26 13.5 -41.5t39.5 -15.5q57 0 89.5 85.5t32.5 232.5q0 143 -67 221t-191 78
q-162 0 -251.5 -132t-89.5 -369q0 -174 77.5 -268.5t219.5 -94.5q117 0 203 54l-3 -43q-83 -58 -206 -58q-166 0 -252 106t-86 310q0 250 106 396.5t287 146.5q288 0 288 -344q0 -167 -53.5 -272t-139.5 -105zM312 383q-5 -54 15 -85t63 -32q40 -2 65 26t30 82l12 121
q4 47 -18 75t-62 28q-41 1 -65.5 -27t-29.5 -81z" />
    <glyph glyph-name="A" unicode="A" horiz-adv-x="474" 
d="M429 0h-60l-45 271l-184 1l-40 -272h-55l152 910h68zM146 323h171l-86 503z" />
    <glyph glyph-name="B" unicode="B" horiz-adv-x="423" 
d="M373 246v-25q0 -221 -160 -221h-163v909h163q160 0 160 -221v-25q0 -94 -22 -147.5t-77 -61.5q55 -7 77 -60.5t22 -147.5zM310 625v85q0 29 -3.5 50t-13 42t-31 32t-53.5 11h-90v-358h79q112 0 112 138zM198 422h-79v-358h90q32 0 53.5 11t31 32t13 42t3.5 50v83
q0 140 -112 140z" />
    <glyph glyph-name="C" unicode="C" 
d="M314 697h61q0 204 -164 204q-166 0 -166 -204v-492q0 -205 166 -205q164 0 164 205v26h-61q1 -6 1 -18q0 -34 -5 -59q-18 -82 -96 -82q-56 0 -77.5 37t-21.5 87v510q0 30 6.5 55.5t30 47.5t62.5 22q72 0 92 -69q7 -24 7 -52q1 -4 1 -13z" />
    <glyph glyph-name="D" unicode="D" horiz-adv-x="433" 
d="M222 910h-177v-910h177q166 0 166 208v493q0 209 -166 209zM318 709v-507q0 -127 -98 -127h-105v760h105q98 0 98 -126z" />
    <glyph glyph-name="E" unicode="E" horiz-adv-x="403" 
d="M113 851h243v59h-311v-909h312v59h-244v367h245v58h-245v366z" />
    <glyph glyph-name="F" unicode="F" horiz-adv-x="403" 
d="M113 0v423h245v57h-245v363h243v67h-311v-909z" />
    <glyph glyph-name="G" unicode="G" 
d="M314 704h61q0 206 -164 206q-166 0 -166 -206v-497q0 -207 166 -207t164 207v278h-133v-73h72v-214q0 -31 -7 -56.5t-30.5 -47t-62.5 -21.5q-99 0 -99 125v515q0 50 21.5 88t77.5 38q72 0 92 -69q7 -25 7 -52q1 -5 1 -14z" />
    <glyph glyph-name="H" unicode="H" horiz-adv-x="418" 
d="M373 910h-69v-402h-191v402h-68v-909h68v439h191v-439h69v909z" />
    <glyph glyph-name="I" unicode="I" horiz-adv-x="418" 
d="M245 64v782h128v64h-328v-64h129v-782h-129v-64h328v64h-128z" />
    <glyph glyph-name="J" unicode="J" 
d="M376 910h-70v-710q0 -31 -6.5 -56.5t-30 -47.5t-62.5 -22q-43 0 -66 24.5t-30 60.5q-4 20 -4 59v18h-62v-27q0 -209 166 -209q165 0 165 205v705z" />
    <glyph glyph-name="K" unicode="K" horiz-adv-x="352" 
d="M45 0v910h70v-910h-70zM241 0l-126 455l126 455h67l-126 -455l126 -455h-67z" />
    <glyph glyph-name="L" unicode="L" horiz-adv-x="434" 
d="M120 73v837h-75v-910h344v73h-269z" />
    <glyph glyph-name="M" unicode="M" horiz-adv-x="742" 
d="M606 910l-235 -851l-235 851h-77v-909h70v688l191 -688h110l182 701v-701h71v909h-77z" />
    <glyph glyph-name="N" unicode="N" horiz-adv-x="417" 
d="M372 909l-68 1v-698l-186 698h-73v-909h68v697l189 -697l70 -1v909z" />
    <glyph glyph-name="O" unicode="O" horiz-adv-x="423" 
d="M378 704q0 97 -43.5 151.5t-129.5 54.5q-79 0 -119.5 -56t-40.5 -150v-497q0 -207 160 -207q87 0 130 54.5t43 151.5v498zM309 713v-516q0 -125 -96 -125t-96 125v516q0 125 96 125t96 -125z" />
    <glyph glyph-name="P" unicode="P" horiz-adv-x="388" 
d="M45 909v-909l67 1v374h85q85 0 115.5 46.5t30.5 149.5v125q0 108 -31 161t-115 53zM287 732v-164q0 -50 -11 -80q-21 -58 -79 -58h-85v422h85q56 0 78 -44q5 -11 10 -38q2 -12 2 -38z" />
    <glyph glyph-name="Q" unicode="Q" horiz-adv-x="498" 
d="M453 68l-85 57l3 21q4 27 4 59v492q0 96 -43 150t-129 54q-85 0 -121.5 -52.5t-36.5 -151.5v-492q0 -100 36.5 -152.5t121.5 -52.5q79 0 123 45l17 17l84 -50zM307 706v-510q0 -125 -96 -125t-96 125v510q0 124 96 124t96 -124z" />
    <glyph glyph-name="R" unicode="R" 
d="M376 0l-120 381l22 13q55 32 55 177v125q0 107 -31 160.5t-115 53.5h-142v-910h57v376h101l118 -376h55zM102 853h85q58 0 78 -42q6 -13 10 -39q2 -11 2 -38v-165q0 -51 -11 -81q-21 -58 -79 -58h-85v423z" />
    <glyph glyph-name="S" unicode="S" 
d="M374 705q0 205 -162 205q-163 0 -163 -206q0 -83 30.5 -140.5t89.5 -119.5l48 -50q27 -30 44 -55q45 -67 45 -141q0 -31 -6.5 -56.5t-30 -47t-62.5 -21.5q-99 0 -99 125v36h-63v-27q0 -207 166 -207q164 0 164 207q0 83 -30.5 140t-88.5 119q-18 18 -48 50q-28 31 -44 55
q-46 66 -46 142q0 126 97 126q69 0 90 -69q6 -21 8 -52v-13h61z" />
    <glyph glyph-name="T" unicode="T" horiz-adv-x="467" 
d="M421 910h-376v-71h149v-838h79v838h148v71z" />
    <glyph glyph-name="U" unicode="U" 
d="M45 210q0 -210 166 -210q164 0 164 210v700h-61v-710q0 -125 -100 -125q-99 0 -99 125v710h-70v-700z" />
    <glyph glyph-name="V" unicode="V" horiz-adv-x="474" 
d="M374 911h55l-152 -910h-68l-164 910h60l138 -826z" />
    <glyph glyph-name="W" unicode="W" horiz-adv-x="797" 
d="M697 911h55l-152 -910h-68l-132 734l-123 -734h-68l-164 910h60l138 -826l125 826h61v-3l137 -823z" />
    <glyph glyph-name="X" unicode="X" horiz-adv-x="408" 
d="M238 456l125 454h-67l-92 -331l-91 331h-68l125 -454l-125 -455h68l91 329l92 -329h67z" />
    <glyph glyph-name="Y" unicode="Y" horiz-adv-x="408" 
d="M169 0h69v462l124 448h-66l-92 -331l-91 331h-68l123 -448z" />
    <glyph glyph-name="Z" unicode="Z" horiz-adv-x="417" 
d="M372 73h-228l206 837h-305v-70h212l-200 -839h315v72z" />
    <glyph glyph-name="bracketleft" unicode="[" horiz-adv-x="232" 
d="M54 888v-880h153v58h-85v765h85v57h-153z" />
    <glyph glyph-name="backslash" unicode="\" horiz-adv-x="362" 
d="M356 8l-303 880h-47l303 -880h47z" />
    <glyph glyph-name="bracketright" unicode="]" horiz-adv-x="232" 
d="M178 8v880h-153v-57h85v-765h-85v-58h153z" />
    <glyph glyph-name="asciicircum" unicode="^" horiz-adv-x="374" 
d="M162 888l-139 -353h37l127 339l127 -339h37l-138 353h-51z" />
    <glyph glyph-name="underscore" unicode="_" horiz-adv-x="528" 
d="M0 -69v-44h528v44h-528z" />
    <glyph glyph-name="a" unicode="a" horiz-adv-x="439" 
d="M314 0h80v600l-80 -1v-23l-41 14q-29 10 -62 10q-166 0 -166 -208v-184q0 -208 166 -208q33 0 63 9l40 12v-21zM314 198q0 -50 -22 -87.5t-78 -37.5q-99 0 -99 125v204q0 31 6 56t30 47.5t63 22.5t63 -22t30.5 -47.5t6.5 -56.5v-204z" />
    <glyph glyph-name="b" unicode="b" horiz-adv-x="417" 
d="M58 0h156q84 0 117 54.5t33 159.5v194q0 103 -32 150t-118 47h-85v305h-71v-910zM304 403v-204q0 -59 -12 -88q-22 -48 -78 -48h-85v484h85q56 0 79 -60q11 -31 11 -84z" />
    <glyph glyph-name="c" unicode="c" 
d="M314 391h61q0 209 -164 209q-166 0 -166 -209v-188q0 -208 166 -208q164 0 164 208v27h-61q1 -6 1 -18q0 -35 -5 -60q-18 -83 -96 -83q-99 0 -99 125v206q0 127 99 127q72 0 92 -70q6 -21 8 -52v-14z" />
    <glyph glyph-name="d" unicode="d" horiz-adv-x="396" 
d="M351 0v910h-71v-305h-85q-86 0 -118 -47t-32 -150v-194q0 -105 33.5 -159.5t117.5 -54.5h155zM105 403q0 53 11 84q22 60 79 60h85v-484h-85q-55 0 -78 48q-12 29 -12 88v204z" />
    <glyph glyph-name="e" unicode="e" 
d="M375 330v61q0 209 -164 209q-166 0 -166 -209v-188q0 -208 166 -208q164 0 164 208v27h-61q1 -6 1 -18q0 -38 -5 -65q-18 -95 -96 -95q-99 0 -99 142v136h260zM115 415q5 131 99 131q52 0 75 -38.5t25 -92.5l1 -30h-201z" />
    <glyph glyph-name="f" unicode="f" 
d="M314 667h61v32q0 211 -164 211q-166 0 -166 -206v-704h68l3 331h151v62h-151l-1 329q0 126 99 126q56 0 78 -37.5t22 -88.5v-55z" />
    <glyph glyph-name="g" unicode="g" 
d="M375 -56v451q0 205 -164 205q-166 0 -166 -205v-185q0 -204 166 -204q31 0 55 6l40 13v-43q0 -4 1 -20.5t0 -25.5q-2 -36 -7 -52q-21 -73 -93 -73q-63 0 -86 52q-10 25 -12 53h-63q11 -176 165 -176q164 0 164 204zM314 414v-213q0 -50 -22 -86.5t-78 -36.5
q-99 0 -99 123v213q0 45 24 79.5t75 34.5t75.5 -34t24.5 -80z" />
    <glyph glyph-name="h" unicode="h" horiz-adv-x="417" 
d="M129 0v547h85q56 0 79 -60q11 -31 11 -84v-403l60 -1v409q0 103 -32 150t-118 47h-85v305h-71v-910h71z" />
    <glyph glyph-name="i" unicode="i" horiz-adv-x="165" 
d="M120 901h-75v-84h75v84zM45 0h75v597h-75v-597z" />
    <glyph glyph-name="j" unicode="j" horiz-adv-x="423" 
d="M378 901h-77v-84h77v84zM374 597h-68v-403q0 -125 -99 -125t-99 125v36h-63v-27q0 -208 166 -208q164 0 164 198q0 269 -1 404z" />
    <glyph glyph-name="k" unicode="k" horiz-adv-x="347" 
d="M115 910h-70v-905h70v905zM115 304l122 -299h65l-121 300l120 298h-64z" />
    <glyph glyph-name="l" unicode="l" horiz-adv-x="170" 
d="M45 0h80v910l-80 -1v-909z" />
    <glyph glyph-name="m" unicode="m" horiz-adv-x="686" 
d="M641 394q0 208 -166 208q-72 0 -111 -39l-22 -20l-21 21q-38 38 -110 38q-166 0 -166 -208v-394h70v403q0 125 99 125q75 0 94 -73q4 -16 4 -22q0 -7 -1 -20t-1 -19v-394h70v403q0 125 99 125t99 -125v-403h63v394z" />
    <glyph glyph-name="n" unicode="n" 
d="M375 0v394q0 208 -164 208q-166 0 -166 -208v-394h70v403q0 125 99 125q56 0 78 -37.5t22 -87.5v-403h61z" />
    <glyph glyph-name="o" unicode="o" horiz-adv-x="423" 
d="M378 390q0 98 -42.5 153t-129.5 55q-79 0 -120 -55.5t-41 -152.5v-184q0 -97 41 -153t120 -56q87 0 129.5 55.5t42.5 153.5v184zM310 399v-202q0 -126 -96 -126t-96 126v202q0 125 96 125t96 -125z" />
    <glyph glyph-name="p" unicode="p" horiz-adv-x="396" 
d="M45 604v-864h71v259h85q86 0 118 47t32 150v194q0 105 -33 159.5t-117 54.5h-156zM291 201q0 -53 -11 -84q-21 -60 -79 -60h-85v484h85q58 0 78 -48q12 -29 12 -88v-204z" />
    <glyph glyph-name="q" unicode="q" horiz-adv-x="396" 
d="M351 604h-156q-84 0 -117 -54.5t-33 -159.5v-194q0 -103 32 -150t118 -47h85v-259h71v864zM105 201v204q0 59 12 88q20 48 78 48h85v-484h-85q-58 0 -79 60q-11 31 -11 84z" />
    <glyph glyph-name="r" unicode="r" 
d="M46 0h69v403q0 125 99 125q78 0 96 -83q5 -25 5 -60q0 -12 -1 -18h61v27q0 208 -164 208q-166 0 -166 -201q0 -66 0.5 -200t0.5 -201z" />
    <glyph glyph-name="s" unicode="s" 
d="M374 480q-4 63 -45 90t-117 27q-163 0 -163 -132q0 -59 29.5 -97t84.5 -75q9 -6 25 -16t22 -14q27 -16 45 -31q73 -62 73 -106q0 -47 -36 -66.5t-85 -19.5q-56 0 -84 27.5t-31 66.5h-47v-7q0 -132 166 -132q164 0 164 132q0 56 -29 93t-85 73q-32 20 -47 30
q-21 13 -45 32q-68 60 -68 106q0 86 114 86q55 0 76.5 -15.5t29.5 -51.5h53z" />
    <glyph glyph-name="t" unicode="t" horiz-adv-x="467" 
d="M268 585v316l-69 -1v-315h-154v-66h154v-519h69v519h154v66h-154z" />
    <glyph glyph-name="u" unicode="u" horiz-adv-x="415" 
d="M370 602h-62v-403q0 -50 -22 -87.5t-78 -37.5q-39 0 -62.5 22t-30 47.5t-6.5 55.5v403h-64v-394q0 -208 160 -208q165 0 165 208v394z" />
    <glyph glyph-name="v" unicode="v" horiz-adv-x="362" 
d="M151 0l-106 589h56l84 -505l80 505h52l-98 -589h-68z" />
    <glyph glyph-name="w" unicode="w" horiz-adv-x="735" 
d="M639 596h51l-139 -595h-62l-120 480l-112 -480h-62l-150 595h55l126 -540l114 540h55v-2l125 -538z" />
    <glyph glyph-name="x" unicode="x" horiz-adv-x="398" 
d="M232 299l120 298h-64l-90 -216l-88 216h-65l121 -298l-121 -298h65l88 217l90 -217h65z" />
    <glyph glyph-name="y" unicode="y" 
d="M374 597h-60v-403q0 -50 -22 -87.5t-78 -37.5q-99 0 -99 125v403h-70v-394q0 -208 166 -208q36 0 55 7l40 13v-44q0 -7 0.5 -22.5t0.5 -23.5q-2 -37 -7 -54q-19 -73 -93 -73q-62 0 -86 52q-10 25 -12 54h-63q11 -179 165 -179q166 0 164 208z" />
    <glyph glyph-name="z" unicode="z" horiz-adv-x="418" 
d="M373 68h-217l197 529h-308l1 -63h218l-202 -533h310z" />
    <glyph glyph-name="braceleft" unicode="{" horiz-adv-x="241" 
d="M135 570q-3 -51 -11 -63q-6 -11 -23 -22l-46 -31l46 -31q27 -18 31 -57q1 -9 2 -29l1 -10l6 -135q2 -50 14 -77q20 -43 67 -49v-58h-35q-94 0 -100 120l-9 181q0 7 -0.5 22.5t-1 23.5t-4 20.5t-10 19.5t-19 13t-30.5 8v65q22 5 35.5 12.5t19 21t7.5 20.5t2.5 27.5
t0.5 25.5l9 181q6 119 100 119h35v-57q-47 -6 -67 -49q-12 -27 -14 -77z" />
    <glyph glyph-name="bar" unicode="|" horiz-adv-x="514" 
d="M241 976v-1055h44v1055h-44z" />
    <glyph glyph-name="braceright" unicode="}" horiz-adv-x="240" 
d="M105 570l-6 135q-2 50 -14 77q-20 43 -67 49v57h35q94 0 100 -119l9 -181q0 -5 0.5 -25.5t2.5 -27.5t7.5 -20.5t19 -21t35.5 -12.5v-65q-18 -2 -30.5 -8t-19 -13t-10 -19.5t-4 -20.5t-1 -23.5t-0.5 -22.5l-9 -181q-6 -120 -100 -120h-35v58q47 6 67 49q12 27 14 77
q1 20 2 42.5t2 50t2 42.5q3 58 12 73q7 13 22 23l46 31l-46 31q-26 18 -31 43q-1 9 -3 34v8z" />
    <glyph glyph-name="asciitilde" unicode="~" horiz-adv-x="390" 
d="M27 409l12 17q33 40 70 40q26 0 54 -17q11 -6 44 -30q23 -18 39 -26q17 -10 32 -10q32 0 63 29q16 15 40 52l-20 23q-5 -9 -11 -16q-32 -39 -70 -39q-26 0 -54 17q-9 5 -43 30q-26 18 -39 25q-22 10 -33 10q-30 0 -62 -32q-18 -18 -40 -53z" />
    <glyph glyph-name="cent" unicode="&#xa2;" horiz-adv-x="403" 
d="M179 52v-64h45v63l25 6q117 24 117 200v67h-60v-76q0 -124 -98 -124q-56 0 -77.5 37t-21.5 87v401q0 30 6.5 55.5t30 47.5t62.5 22t62.5 -22.5t29.5 -47.5t6 -55v-42h60v33q0 174 -118 202l-24 5v63h-45v-65l-24 -6q-114 -27 -114 -199v-383q0 -173 114 -200z" />
    <glyph glyph-name="sterling" unicode="&#xa3;" horiz-adv-x="404" 
d="M367 633h-61v70q0 125 -96 125t-96 -125q0 -101 31 -193q5 -15 15 -42t12 -32q16 -38 22 -69l6 -25h137v-51h-133l-2 -29q-5 -53 -29.5 -117.5t-55.5 -65.5h241v-71h-324v69q57 14 84 68.5t28 113.5l1 32h-97v51h91l-13 41q-5 18 -12.5 37.5t-17.5 42.5t-15 36
q-37 94 -37 195q0 206 161 206q160 0 160 -206v-61z" />
    <glyph glyph-name="yen" unicode="&#xa5;" horiz-adv-x="386" 
d="M378 888h-58l-125 -503l-116 503h-71l150 -578h-106v-42h107v-62h-107v-42h107v-156h68v156h107v42h-107v62h107v42h-107z" />
    <glyph glyph-name="copyright" unicode="&#xa9;" horiz-adv-x="843" 
d="M38 454q0 190 109 315.5t275 125.5t275 -125.5t109 -315.5q0 -191 -109 -316.5t-275 -125.5t-275 125.5t-109 316.5zM90 454q0 -165 94.5 -273.5t237.5 -108.5t237 108.5t94 273.5t-94 273t-237 108t-237.5 -108.5t-94.5 -272.5zM479 385h53v-56q0 -141 -115 -141
q-114 0 -114 141v247q0 143 114 143q115 0 115 -143v-31h-53v38q0 77 -59 77q-60 0 -60 -77v-259q0 -75 60 -75q59 0 59 75v61z" />
    <glyph glyph-name="registered" unicode="&#xae;" horiz-adv-x="843" 
d="M422 895q166 0 275 -125.5t109 -315.5q0 -191 -109 -316.5t-275 -125.5t-275 125.5t-109 316.5q0 190 109 315.5t275 125.5zM422 72q143 0 237 108.5t94 273.5t-94 273t-237 108t-237.5 -108.5t-94.5 -272.5q0 -165 94.5 -273.5t237.5 -108.5zM543 315v-59q0 -34 6 -60
h-58q-5 18 -5 61v59q0 49 -17.5 71.5t-55.5 22.5h-45v-214h-57v515h118q59 0 86.5 -30.5t27.5 -97.5v-11q0 -84 -52 -126q52 -40 52 -131zM419 469q67 0 67 80v23q0 80 -62 80h-56v-183h51z" />
    <glyph glyph-name="questiondown" unicode="&#xbf;" horiz-adv-x="362" 
d="M227 809v79h-64v-79h64zM227 680h-56v-21q0 -82 -45 -159q-18 -32 -39 -63q-21 -34 -34 -63q-35 -76 -35 -171q0 -206 161 -206q160 0 160 206v62h-61v-71q0 -125 -95 -125q-97 0 -97 125q0 94 31 171q15 36 40 80q31 53 36 62q35 67 35 146q0 19 -1 27z" />
    <glyph glyph-name="multiply" unicode="&#xd7;" horiz-adv-x="382" 
d="M191 473l-125 141l-21 -24l124 -141l-125 -143l21 -24l126 142l125 -142l21 24l-125 143l125 143l-20 23z" />
    <glyph glyph-name="divide" unicode="&#xf7;" horiz-adv-x="404" 
d="M234 694h-64v-80h64v80zM375 469h-346v-41h346v41zM234 282h-64v-80h64v80z" />
    <glyph glyph-name="figuredash" unicode="&#x2012;" horiz-adv-x="406" 
d="M0 478v-59h406v59h-406z" />
    <glyph glyph-name="endash" unicode="&#x2013;" horiz-adv-x="528" 
d="M0 478v-59h528v59h-528z" />
    <glyph glyph-name="emdash" unicode="&#x2014;" horiz-adv-x="1119" 
d="M0 478v-59h1119v59h-1119z" />
    <glyph glyph-name="quoteleft" unicode="&#x2018;" horiz-adv-x="213" 
d="M157 762v-115h-101v109l51 133h33l-33 -127h50z" />
    <glyph glyph-name="quoteright" unicode="&#x2019;" horiz-adv-x="213" 
d="M56 774v115h101v-109l-51 -133h-33l33 127h-50z" />
    <glyph glyph-name="quotesinglbase" unicode="&#x201a;" horiz-adv-x="213" 
d="M56 18v115h101v-109l-51 -134h-33l33 128h-50z" />
    <glyph glyph-name="quotedblleft" unicode="&#x201c;" horiz-adv-x="381" 
d="M157 762v-115h-101v109l51 133h33l-33 -127h50zM325 762v-115h-102v109l51 133h34l-33 -127h50z" />
    <glyph glyph-name="quotedblright" unicode="&#x201d;" horiz-adv-x="381" 
d="M56 774v115h101v-109l-51 -133h-33l33 127h-50zM223 774v115h102v-109l-51 -133h-34l33 127h-50z" />
    <glyph glyph-name="quotedblbase" unicode="&#x201e;" horiz-adv-x="381" 
d="M56 18v115h101v-109l-51 -134h-33l33 128h-50zM223 18v115h102v-109l-51 -134h-34l33 128h-50z" />
    <glyph glyph-name="guilsinglleft" unicode="&#x2039;" horiz-adv-x="162" 
d="M143 777h-60l-42 -214q0 -1 -16 -61q-7 -30 -7 -52q0 -24 7 -56q15 -61 16 -65l43 -227h59l-39 215q-2 14 -7.5 35.5t-6.5 26.5q-9 36 -9 71q0 34 9 68q1 5 6.5 25t7.5 33z" />
    <glyph glyph-name="guilsinglright" unicode="&#x203a;" horiz-adv-x="162" 
d="M79 777h-61l40 -201q2 -13 7.5 -33t6.5 -25q10 -38 10 -68q0 -31 -10 -71q-1 -5 -6.5 -26.5t-7.5 -35.5l-40 -215h61l42 227q2 13 15 65q7 32 7 56q0 22 -7 52q-13 50 -15 61z" />
    <glyph glyph-name="fraction" unicode="&#x2044;" horiz-adv-x="77" 
d="M-157 8l316 891h75l-317 -891h-74z" />
    <glyph glyph-name="Euro" unicode="&#x20ac;" horiz-adv-x="454" 
d="M47 537h32v148q0 200 159 200q160 0 160 -200v-40h-69v49q0 113 -87 113t-87 -113v-157h177v-45h-177v-70h177v-45h-177v-164q0 -112 87 -112t87 112v55h69v-46q0 -200 -160 -200q-159 0 -159 200v155h-32v45h32v70h-32v45z" />
    <glyph glyph-name="trademark" unicode="&#x2122;" horiz-adv-x="671" 
d="M21 828v61h228v-61h-84v-372h-60v372h-84zM411 889l58 -314h18l53 314h93v-433h-55v317l-19 1l-53 -318h-60l-60 316l-19 -1v-315h-50v433h94z" />
    <glyph glyph-name="minus" unicode="&#x2212;" horiz-adv-x="404" 
d="M375 469h-346v-41h346v41z" />
    <glyph glyph-name="_FSHallmark" horiz-adv-x="848" 
d="M808 790v-91h-767v91h767zM643 270q-35 0 -63 8q-32 10 -54 26q-24 17 -38 43q-15 25 -15 61l89 -2q0 -2 5 -14q1 -12 13 -24q11 -11 23 -15q15 -9 43 -9q32 0 49 10q18 10 18 25q0 29 -73 42q-79 23 -112 42q-46 22 -46 76q0 42 31 69q25 21 67 37q44 7 63 7
q40 0 86 -18q45 -18 62 -60q10 -27 10 -45h-92q0 9 -7 21q-5 7 -17 16q-3 1 -10.5 4.5t-11.5 4.5q-3 0 -10.5 2t-11.5 2q-21 0 -44 -13q-18 -11 -18 -27q0 -29 17 -37q24 -12 40 -15l34 -9l28 -6q24 -6 27 -6q17 -4 22 -7q14 -6 19 -9q21 -13 29 -25q11 -18 12 -41
q1 -24 -10 -45q-22 -40 -68 -55q-41 -14 -86 -14zM142 565v-87h185v-84h-185v-124h-101v381h323v-86h-222zM401 272q-16 0 -30 14q-16 13 -16 30q0 20 14 33q13 12 32 12q20 0 37 -14q16 -13 16 -31t-16 -32q-16 -12 -37 -12zM807 223v-91h-767v91h767z" />
    <glyph glyph-name="_Fontastica" horiz-adv-x="660" 
d="M137 700v-230h322v-86h-322v-162h-96q-1 2 -1 4v559h419v-85h-322zM197 540v87h324v158h95v-561h-419v86h324v230h-324zM528 132q-1 0 -3.5 1t-6 2t-6.5 2q-7 12 -8 19q0 12 7 19q9 9 17 9q11 0 22 -9l-5 -7l-4 4q-1 1 -9 1h-4l-2 -1q-1 0 -2.5 -1t-2.5 -3q-5 -5 -5 -9
q0 -5 3 -11q6 -6 9 -6q11 0 17 6l5 -6q-8 -10 -22 -10zM53 173v-13h22v-7h-22v-19h-12v47h35v-8h-23zM119 131q-6 0 -10 3q-15 5 -15 21q0 13 7 20q6 6 19 6q17 0 24 -11q8 -11 2 -22q-4 -13 -21 -16zM207 132q-1 0 -2 1t-2.5 2t-2.5 2l-6 8q0 1 -5 6l-8 12v-29h-12v47h9
q4 -1 5 -5l11 -13q2 -3 6 -7.5t4 -5.5v31h10v-47h-4q-2 -2 -3 -2zM233 173v8h41v-8h-15v-39h-10v39h-16zM376 132q-14 0 -22 9v1l1 2q0 1 2 4l15 -6h7l4 3q0 8 -11 10q-3 0 -3 1h-5q-7 3 -7 12q-3 6 7 12q1 0 4 0.5t6 0.5q11 0 20 -3l-4 -8l-4 2h-1h-4q-1 0 -2 1h-7l-3 -1
q-1 -2 3 -9q3 0 7.5 -2t5.5 -2q9 0 9 -11q0 -12 -8 -14q-1 -2 -10 -2zM409 173v8h43v-8h-15v-39h-11v39h-17zM483 181v-47h-11v47h11zM620 134h-11l-5 10h-23l-5 -10h-10q12 20 19 47h13l11 -22q1 -2 2.5 -7t2.5 -7q0 -1 2 -5.5t4 -5.5zM298 137v-1l-2 -2h-10l20 46h12
q0 -4 4 -10q1 -1 2 -2.5t1.5 -3t1.5 -3t1 -3.5q4 -12 4 -13t5 -11h-12q-1 1 -1 3l-2 7h-24v-7zM120 142h5q9 4 9 14v2q0 8 -4 12q-3 3 -11 3q-1 -1 -4 -1l-1 -1q-1 -1 -3 -3.5t-4 -4.5q-6 -5 -1 -10q3 -11 14 -11zM311 172l-9 -19h17l-1 3q-2 1 -3 3q0 1 -1 1q-1 3 -1 6
q-1 1 -1 3t-1 3zM592 172l-7 -19h15l-2 3q0 3 -1 4q-3 3 -3 6q0 4 -2 6z" />
    </font>
</defs>
</svg>
