<?xml version="1.0" standalone="no"?>
<!DOCTYPE svg PUBLIC "-//W3C//DTD SVG 1.1//EN" "http://www.w3.org/Graphics/SVG/1.1/DTD/svg11.dtd" >
<svg xmlns="http://www.w3.org/2000/svg" xmlns:xlink="http://www.w3.org/1999/xlink" version="1.1">
<metadata>
Created by FontForge 20170731 at Wed Jan 15 01:05:04 2020
 By Aleksey,,,
Copyright (c) 2020 by Fontastica. All rights reserved.
</metadata>
<defs>
<font id="Impulse-LightItalic" horiz-adv-x="421" >
  <font-face 
    font-family="Impulse Light Italic"
    font-weight="300"
    font-style="italic"
    font-stretch="normal"
    units-per-em="1000"
    panose-1="0 0 4 0 0 0 0 0 0 0"
    ascent="800"
    descent="-200"
    x-height="589"
    cap-height="910"
    bbox="-156 -275 1195 976"
    underline-thickness="50"
    underline-position="-175"
    unicode-range="U+000D-2212"
  />
<missing-glyph horiz-adv-x="617" 
d="M43 -10l148 930h527l-148 -930h-527zM389 509l255 365h-395zM539 113l108 684l-238 -342zM114 115l237 340l-129 339zM373 401l-255 -364h394z" />
    <glyph glyph-name=".notdef" horiz-adv-x="617" 
d="M43 -10l148 930h527l-148 -930h-527zM389 509l255 365h-395zM539 113l108 684l-238 -342zM114 115l237 340l-129 339zM373 401l-255 -364h394z" />
    <glyph glyph-name=".null" horiz-adv-x="0" 
 />
    <glyph glyph-name="nonmarkingreturn" horiz-adv-x="333" 
 />
    <glyph glyph-name="CR" unicode="&#xd;" horiz-adv-x="0" 
 />
    <glyph glyph-name="space" unicode=" " horiz-adv-x="264" 
 />
    <glyph glyph-name="exclam" unicode="!" horiz-adv-x="160" 
d="M95 217h38l41 197q3 16 8 37t8.5 38t6.5 37l58 362h-68l-58 -362q-4 -26 -7.5 -63t-4.5 -49zM126 88h-64l-13 -80h64z" />
    <glyph glyph-name="quotedbl" unicode="&#x22;" horiz-adv-x="374" 
d="M197 889h100l-55 -242h-67zM356 889h101l-56 -242h-67z" />
    <glyph glyph-name="numbersign" unicode="#" horiz-adv-x="416" 
d="M235 8h44l67 269h61l10 43h-61l78 310h60l11 41h-61l55 217h-44l-55 -217h-138l53 217h-44l-53 -217h-60l-10 -41h58l-76 -310h-59l-10 -43h58l-68 -269h45l68 269h138zM252 630h138l-78 -310h-138z" />
    <glyph glyph-name="dollar" unicode="$" horiz-adv-x="403" 
d="M471 683q28 169 -83 198l-23 5l10 64h-46l-10 -63l-24 -6q-119 -30 -145 -200q-13 -82 8.5 -135t70.5 -107q7 -9 21.5 -24.5t18.5 -20.5q22 -27 36 -50q36 -63 24 -138q-20 -122 -117 -122q-39 0 -59.5 20.5t-21.5 47.5t1 54l7 44h-60l-6 -34q-28 -172 84 -201l23 -6
l-9 -62h45l10 62l25 6q120 29 148 201q13 82 -8.5 134.5t-70.5 107.5q-14 15 -40 45q-22 27 -36 50q-36 63 -24 137q21 124 116 124q37 0 56 -19.5t22 -49.5q3 -22 -1 -50q-2 -8 -2 -12h60z" />
    <glyph glyph-name="percent" unicode="%" horiz-adv-x="718" 
d="M128 470l47 293q20 128 127 128q106 0 86 -128l-47 -293q-20 -128 -126 -128q-107 0 -87 128zM186 23l443 861h42l-444 -861h-41zM226 769l-49 -305q-11 -71 46 -71q56 0 67 71l49 305q11 72 -45 72q-57 0 -68 -72zM475 144l46 293q21 128 126 128q108 0 87 -128
l-46 -293q-21 -128 -127 -128q-107 0 -86 128zM572 443l-48 -305q-11 -71 45 -71q57 0 68 71l48 305q11 71 -46 71q-56 0 -67 -71z" />
    <glyph glyph-name="ampersand" unicode="&#x26;" horiz-adv-x="439" 
d="M475 511l-12 -77h-33l-64 -401h-63l4 23q-7 -13 -20 -21t-33 -10.5t-33 -3.5t-37.5 0t-29.5 1q-56 0 -74 43.5t-3 135.5l14 91q11 73 39.5 113t78.5 65q-82 46 -59 192l3 17q15 100 59 147.5t125 47.5h120l-10 -64h-118q-89 0 -106 -112l-11 -67q-20 -120 82 -120h80
l16 100h68l-16 -100h33zM362 434h-73q-55 0 -87 -33.5t-43 -104.5l-15 -91q-8 -54 11 -83.5t62 -29.5q42 0 70.5 26.5t36.5 75.5z" />
    <glyph glyph-name="quotesingle" unicode="'" horiz-adv-x="206" 
d="M193 889h101l-55 -242h-67z" />
    <glyph glyph-name="parenleft" unicode="(" horiz-adv-x="233" 
d="M354 888h-9q-87 0 -125 -38.5t-53 -134.5l-84 -532q-15 -97 10.5 -136t112.5 -39h9l9 58q-48 3 -66 27t-7 90l84 532q11 65 36.5 89t73.5 26z" />
    <glyph glyph-name="parenright" unicode=")" horiz-adv-x="233" 
d="M168 888h-9l-9 -58q47 -2 66 -26t8 -89l-84 -532q-11 -66 -37 -90t-74 -27l-10 -58h10q87 0 125.5 39t53.5 136l84 532q15 96 -11 134.5t-113 38.5z" />
    <glyph glyph-name="asterisk" unicode="*" horiz-adv-x="454" 
d="M328 662l5 222h68l-66 -222l197 102l11 -76l-206 -38l118 -156l-63 -46l-62 201l-126 -201l-48 46l167 156l-194 38l35 76z" />
    <glyph glyph-name="plus" unicode="+" horiz-adv-x="404" 
d="M292 469l29 182h-31l-29 -182h-158l-6 -41h157l-29 -186h31l29 186h158l6 41h-157z" />
    <glyph glyph-name="comma" unicode="," horiz-adv-x="213" 
d="M59 18l18 115h101l-17 -109l-73 -134h-32l53 128h-50z" />
    <glyph glyph-name="hyphen" unicode="-" horiz-adv-x="256" 
d="M117 484l-12 -71h174l12 71h-174z" />
    <glyph glyph-name="period" unicode="." horiz-adv-x="213" 
d="M178 133l-18 -115h-101l18 115h101z" />
    <glyph glyph-name="slash" unicode="/" horiz-adv-x="403" 
d="M7 8l458 891h74l-457 -891h-75z" />
    <glyph glyph-name="zero" unicode="0" horiz-adv-x="404" 
d="M146 694l-78 -491q-16 -97 16 -151.5t117 -54.5t134.5 54.5t65.5 151.5l77 491q16 97 -16.5 151.5t-117.5 54.5q-165 0 -198 -206zM135 194l80 509q5 30 15 55t37 47.5t66 22.5t59.5 -21.5t20.5 -49.5t-2 -54l-81 -509q-7 -49 -34 -87t-83 -38q-39 0 -59.5 21.5
t-20.5 49.5t2 54z" />
    <glyph glyph-name="one" unicode="1" horiz-adv-x="399" 
d="M388 888l-139 -102l-10 -58h100l-114 -720h68l139 880h-44z" />
    <glyph glyph-name="two" unicode="2" horiz-adv-x="403" 
d="M412 775q9 -28 0 -87q-15 -97 -72 -183q-20 -30 -55 -70l-58 -63q-49 -51 -75 -82t-54 -85t-37 -113l-14 -84h313l12 71h-241v27q0 13 3 25q9 60 66 130q12 14 109 119q70 76 114 149t58 165q33 206 -130 206q-162 0 -195 -206l-10 -60h61l11 69q21 125 118 125
q61 0 76 -53z" />
    <glyph glyph-name="three" unicode="3" horiz-adv-x="404" 
d="M202 -3q-163 0 -131 206l8 47h61l-9 -56q-20 -125 79 -125q59 0 91 52q19 30 28 85l12 76q24 151 -92 151h-12l11 71h19q81 0 114 74q8 16 17 58q5 39 7 52q9 56 1 86q-15 54 -76 54q-77 0 -108 -80q-8 -22 -14 -57l-2 -17h-60l3 20q33 206 196 206q162 0 129 -206
l-4 -25q-13 -81 -38.5 -123.5t-86.5 -70.5q40 -26 52.5 -52t14.5 -73q3 -31 -4 -71q-2 -13 -12 -76q-32 -206 -194 -206z" />
    <glyph glyph-name="four" unicode="4" horiz-adv-x="405" 
d="M238 910h-68l-116 -736h240l-28 -174h66l28 174h62l11 74h-62l105 662h-68l-103 -662h-172z" />
    <glyph glyph-name="five" unicode="5" horiz-adv-x="402" 
d="M305 598q70 0 104.5 -46.5t22.5 -123.5l-36 -225q-32 -206 -193 -206q-151 0 -135 175h61q-1 -25 7 -52q20 -50 73 -50q98 0 118 124l36 227q6 46 -12.5 82.5t-67.5 36.5q-85 0 -111 -96l-8 -40h-59l97 484h283l-12 -71h-226l-49 -244l19 9q33 16 88 16z" />
    <glyph glyph-name="six" unicode="6" horiz-adv-x="404" 
d="M479 701q30 199 -132 199q-167 0 -200 -214l-77 -483q-16 -97 16 -151.5t117 -54.5t134.5 54.5t65.5 151.5l27 173q12 77 -23 123.5t-105 46.5q-54 0 -87 -16l-27 -13l26 164q9 58 28 91q34 56 98 56q70 0 79 -66q4 -20 0 -49q0 -2 -0.5 -6t-0.5 -6h61zM163 363
q5 30 15 55t37 47.5t66 22.5q50 0 68 -39t11 -86l-27 -169q-5 -31 -15.5 -56t-37 -46.5t-65.5 -21.5q-98 0 -78 124z" />
    <glyph glyph-name="seven" unicode="7" horiz-adv-x="404" 
d="M506 888h-327l-12 -71h267l-318 -809h66l313 810z" />
    <glyph glyph-name="eight" unicode="8" horiz-adv-x="404" 
d="M201 -3q87 0 138 54t67 152l12 73q5 42 4 70q-2 71 -43 102l-38 27l47 26q72 43 91 163l5 30q16 98 -18.5 152t-121.5 54t-137.5 -54t-66.5 -152q-14 -62 -8 -114.5t43 -77.5l38 -27l-46 -27q-74 -44 -93 -171l-12 -74q-16 -98 18 -152t121 -54zM199 636l8 52
q4 24 11 46.5t21 50t39 44t58 16.5t52.5 -16.5t25 -43.5t5.5 -50t-4 -47l-8 -52q-21 -121 -123 -121q-106 0 -85 121zM131 206l14 88q3 22 10 42t20 41t37.5 33.5t56.5 12.5q102 0 84 -129l-14 -88q-5 -33 -16 -62.5t-40.5 -57.5t-71.5 -28q-32 0 -52 15t-25.5 40.5t-6 47
t3.5 45.5z" />
    <glyph glyph-name="nine" unicode="9" horiz-adv-x="404" 
d="M66 196q-28 -199 133 -199q167 0 200 214l77 483q16 97 -16 151.5t-117 54.5t-134.5 -54.5t-65.5 -151.5l-27 -173q-13 -77 22.5 -123.5t105.5 -46.5q54 0 87 16l27 13l-26 -164q-9 -58 -28 -91q-34 -56 -98 -56q-68 0 -80 66q-3 25 0 49q0 2 1 6t1 6h-62zM383 534
q-5 -30 -15 -55t-37 -47.5t-66 -22.5q-50 0 -68.5 39.5t-10.5 85.5l26 169q8 50 35.5 87t83.5 37q98 0 78 -124z" />
    <glyph glyph-name="colon" unicode=":" horiz-adv-x="213" 
d="M255 618l-18 -115h-101l18 115h101zM178 133l-18 -115h-101l18 115h101z" />
    <glyph glyph-name="semicolon" unicode=";" horiz-adv-x="213" 
d="M255 618l-18 -115h-101l18 115h101zM59 18l18 115h101l-17 -109l-73 -134h-32l53 128h-50z" />
    <glyph glyph-name="less" unicode="&#x3c;" horiz-adv-x="403" 
d="M100 417l302 -136l6 38l-297 130l338 129l6 38l-345 -137z" />
    <glyph glyph-name="equal" unicode="=" horiz-adv-x="403" 
d="M455 578h-323l-7 -41h323zM420 360h-323l-7 -41h324z" />
    <glyph glyph-name="greater" unicode="&#x3e;" horiz-adv-x="403" 
d="M91 281l344 136l10 62l-302 137l-6 -38l298 -129l-338 -130z" />
    <glyph glyph-name="question" unicode="?" horiz-adv-x="362" 
d="M170 217h55q1 3 1 10t1 11q13 80 71 159l48 63q28 35 45 63q46 76 62 171q33 206 -127 206q-161 0 -193 -206l-10 -61h61l11 70q19 125 116 125q95 0 76 -125q-17 -99 -59 -171q-20 -37 -52 -80q-7 -10 -22.5 -30.5t-23.5 -31.5q-44 -67 -57 -146q-3 -15 -3 -27zM149 88
l-12 -80h62l13 80h-63z" />
    <glyph glyph-name="at" unicode="@" horiz-adv-x="790" 
d="M578 199q-18 0 -34 6t-23.5 13.5t-7.5 11.5l-9 2q-7 -11 -18.5 -18t-29.5 -8.5t-28.5 -2t-33 1.5t-26.5 2q-89 3 -50 163l34 130q42 164 135 161h23q15 1 31 0.5t29.5 -2t23.5 -8t11 -16.5l10 1l1 19h49l-87 -343q-5 -26 7 -41.5t37 -15.5q57 0 103.5 85.5t69.5 232.5
q23 143 -32 221t-179 78q-161 0 -271.5 -132t-148.5 -369q-28 -174 34.5 -268.5t204.5 -94.5q117 0 212 54l-10 -43q-92 -58 -215 -58q-166 0 -235 106t-37 310q40 251 169 397t310 146q288 0 233 -344q-26 -167 -96.5 -272t-155.5 -105zM373 383q-14 -54 1 -85t58 -32
q40 -2 69 26t43 82l31 121q11 47 -6 75t-57 28q-84 2 -112 -108z" />
    <glyph glyph-name="A" unicode="A" horiz-adv-x="474" 
d="M429 0h-60l-2 271l-184 1l-83 -272h-55l296 910h68zM197 323h171l-6 503z" />
    <glyph glyph-name="B" unicode="B" horiz-adv-x="423" 
d="M412 246l-4 -25q-34 -221 -195 -221h-163l144 909h163q85 0 113.5 -57t11.5 -164l-4 -25q-15 -94 -45.5 -147.5t-86.5 -61.5q54 -7 68.5 -65t-2.5 -143zM409 625l13 85q4 35 4.5 65t-20.5 50t-63 20h-90l-57 -358h79q112 0 134 138zM265 422h-79l-57 -358h90
q61 0 87 36.5t36 98.5l13 83q22 140 -90 140z" />
    <glyph glyph-name="C" unicode="C" 
d="M424 697h62q33 204 -133 204q-165 0 -198 -204l-77 -492q-33 -205 133 -205q164 0 197 205l4 26h-61l-3 -18q-4 -33 -14 -59q-29 -82 -109 -82q-98 0 -79 124l81 510q8 50 35.5 87.5t82.5 37.5q73 0 82 -69q3 -22 -1 -52q0 -2 -1 -6.5t-1 -6.5z" />
    <glyph glyph-name="D" unicode="D" horiz-adv-x="433" 
d="M366 910h-177l-144 -910h177q165 0 199 208l78 493q34 209 -133 209zM430 709l-80 -507q-20 -127 -118 -127h-105l120 760h105q98 0 78 -126z" />
    <glyph glyph-name="E" unicode="E" horiz-adv-x="403" 
d="M248 851h243l9 59h-311l-144 -909h312l9 59h-244l59 367h245l9 58h-245z" />
    <glyph glyph-name="F" unicode="F" horiz-adv-x="403" 
d="M113 0l67 423h245l9 57h-245l58 363h243l10 67h-311l-144 -909z" />
    <glyph glyph-name="G" unicode="G" 
d="M425 704h62q33 206 -132 206q-166 0 -199 -206l-78 -497q-33 -207 133 -207t197 207l44 278h-133l-12 -73h72l-34 -214q-8 -51 -36 -88t-84 -37q-98 0 -79 125l82 515q8 50 35.5 88t83.5 38q72 0 81 -69q3 -23 -1 -52q0 -6 -2 -14z" />
    <glyph glyph-name="H" unicode="H" horiz-adv-x="418" 
d="M517 910h-69l-63 -402h-192l64 402h-68l-144 -909h68l70 439h191l-69 -439h68z" />
    <glyph glyph-name="I" unicode="I" horiz-adv-x="418" 
d="M255 64l124 782h128l11 64h-329l-10 -64h129l-124 -782h-129l-10 -64h328l10 64h-128z" />
    <glyph glyph-name="J" unicode="J" 
d="M520 910h-70l-112 -710q-22 -126 -119 -126q-43 0 -62.5 24.5t-20.5 60.5q-1 18 6 59q0 3 1 9t1 9h-62l-4 -27q-33 -209 133 -209t197 205z" />
    <glyph glyph-name="K" unicode="K" horiz-adv-x="352" 
d="M45 0l144 910h70l-144 -910h-70zM241 0l-54 455l198 455h67l-198 -455l54 -455h-67z" />
    <glyph glyph-name="L" unicode="L" horiz-adv-x="434" 
d="M132 73l132 837h-75l-144 -910h344l12 73h-269z" />
    <glyph glyph-name="M" unicode="M" horiz-adv-x="742" 
d="M751 910l-371 -851l-100 851h-77l-144 -909h71l109 688l82 -688h109l293 701l-111 -701h71l144 909h-76z" />
    <glyph glyph-name="N" unicode="N" horiz-adv-x="417" 
d="M516 909l-67 1l-111 -698l-76 698h-73l-144 -909h68l111 697l78 -697l70 -1z" />
    <glyph glyph-name="O" unicode="O" horiz-adv-x="423" 
d="M489 704q15 97 -19.5 151.5t-120.5 54.5q-79 0 -128.5 -56t-64.5 -150l-78 -497q-33 -207 127 -207q87 0 138.5 54t66.5 152zM421 713l-81 -516q-21 -125 -116 -125q-94 0 -76 125l82 516q21 125 116 125q96 0 75 -125z" />
    <glyph glyph-name="P" unicode="P" horiz-adv-x="388" 
d="M189 909l-144 -909l67 1l59 374h86q85 0 122.5 46.5t53.5 149.5l20 125q10 66 7 113.5t-32 74t-87 26.5zM403 732l-26 -164q-7 -47 -24 -80q-31 -58 -88 -58h-85l67 422h85q56 0 71 -44q4 -12 4 -38q0 -12 -4 -38z" />
    <glyph glyph-name="Q" unicode="Q" horiz-adv-x="498" 
d="M464 68l-76 57l6 21q8 28 13 59l78 492q15 96 -19 150t-120 54q-85 0 -130 -52.5t-61 -151.5l-78 -492q-15 -100 13 -152.5t113 -52.5q80 0 130 45l20 17l75 -50zM419 706l-81 -510q-19 -125 -116 -125q-95 0 -76 125l81 510q21 124 116 124q94 0 76 -124z" />
    <glyph glyph-name="R" unicode="R" 
d="M376 0l-60 381l24 13q60 32 83 177l20 125q10 65 7 112.5t-32 74.5t-87 27h-142l-144 -910h57l60 376h101l58 -376h55zM237 853h85q58 0 71 -42q4 -13 4 -39q0 -12 -4 -38l-26 -165q-7 -50 -24 -81q-31 -58 -88 -58h-85z" />
    <glyph glyph-name="S" unicode="S" 
d="M486 705q33 205 -130 205q-164 0 -195 -206q-14 -83 7.5 -140t70.5 -120q25 -30 40 -50q22 -28 35 -55q36 -66 24 -141q-21 -125 -120 -125q-98 0 -79 125l6 36h-63l-4 -27q-33 -207 133 -207q164 0 197 207q14 83 -8 140t-71 119q-6 8 -19.5 24.5t-19.5 25.5
q-21 29 -36 55q-35 68 -23 142q21 126 117 126q70 0 79 -69q4 -22 0 -52q-1 -2 -1 -6.5t-1 -6.5h61z" />
    <glyph glyph-name="T" unicode="T" horiz-adv-x="467" 
d="M565 910h-376l-11 -71h149l-133 -838h79l133 838h148z" />
    <glyph glyph-name="U" unicode="U" 
d="M78 210q-33 -210 133 -210q165 0 198 210l111 700h-62l-113 -710q-19 -125 -119 -125q-39 0 -60 21t-21.5 48.5t2.5 55.5l112 710h-70z" />
    <glyph glyph-name="V" unicode="V" horiz-adv-x="474" 
d="M518 911h55l-296 -910h-68l-20 910h60l7 -826z" />
    <glyph glyph-name="W" unicode="W" horiz-adv-x="797" 
d="M841 911h55l-296 -910h-68l-16 734l-239 -734h-68l-20 910h60l7 -826l256 826h61v-3l6 -823z" />
    <glyph glyph-name="X" unicode="X" horiz-adv-x="408" 
d="M310 456l198 454h-68l-145 -331l-38 331h-68l53 -454l-197 -455h68l143 329l40 -329h68z" />
    <glyph glyph-name="Y" unicode="Y" horiz-adv-x="408" 
d="M169 0h69l74 462l195 448h-67l-145 -331l-38 331h-68l52 -448z" />
    <glyph glyph-name="Z" unicode="Z" horiz-adv-x="417" 
d="M384 73h-228l339 837h-306l-11 -70h213l-334 -839h316z" />
    <glyph glyph-name="bracketleft" unicode="[" horiz-adv-x="232" 
d="M195 888l-140 -880h154l9 58h-86l122 765h85l9 57h-153z" />
    <glyph glyph-name="backslash" unicode="\" horiz-adv-x="362" 
d="M357 8l-164 880h-46l164 -880h46z" />
    <glyph glyph-name="bracketright" unicode="]" horiz-adv-x="232" 
d="M180 8l139 880h-153l-9 -57h85l-121 -765h-86l-9 -58h154z" />
    <glyph glyph-name="asciicircum" unicode="^" horiz-adv-x="374" 
d="M302 888l-194 -353h37l181 339l73 -339h37l-83 353h-51z" />
    <glyph glyph-name="underscore" unicode="_" horiz-adv-x="528" 
d="M-11 -69l-7 -44h528l7 44h-528z" />
    <glyph glyph-name="a" unicode="a" horiz-adv-x="439" 
d="M314 0h80l95 600l-81 -1l-3 -23l-38 14q-27 10 -61 10q-166 0 -199 -208l-29 -184q-33 -208 133 -208q32 0 65 9l41 12zM345 198q-8 -51 -35.5 -88t-84.5 -37q-39 0 -59.5 21t-21 49t1.5 55l33 204q20 126 119 126q39 0 59.5 -21.5t21 -49.5t-1.5 -55z" />
    <glyph glyph-name="b" unicode="b" horiz-adv-x="417" 
d="M58 0h156q84 0 125.5 54.5t58.5 159.5l31 194q16 103 -8.5 150t-110.5 47h-85l49 305h-72zM368 403l-32 -204q-12 -63 -26 -88q-32 -48 -86 -48h-85l77 484h85q56 0 69 -60q7 -32 -2 -84z" />
    <glyph glyph-name="c" unicode="c" 
d="M376 391h61q33 209 -131 209q-166 0 -199 -209l-30 -188q-33 -208 133 -208q165 0 198 208l4 27h-61l-3 -18q-6 -36 -14 -60q-30 -83 -109 -83q-99 0 -79 125l32 206q21 127 119 127q73 0 82 -70q3 -23 -1 -52q-2 -10 -2 -14z" />
    <glyph glyph-name="d" unicode="d" horiz-adv-x="396" 
d="M351 0l144 910h-71l-48 -305h-85q-86 0 -125.5 -47t-55.5 -150l-31 -194q-17 -105 8 -159.5t109 -54.5h155zM169 403q9 54 24 84q32 60 89 60h85l-77 -484h-85q-55 0 -70 48q-9 32 2 88z" />
    <glyph glyph-name="e" unicode="e" 
d="M427 330q3 17 10 61q33 209 -131 209q-166 0 -199 -209l-30 -188q-33 -208 133 -208q165 0 198 208l4 27h-61l-3 -18q-7 -42 -15 -65q-32 -95 -111 -95q-98 0 -76 142l21 136h260zM181 415q6 33 18 60t38.5 49t62.5 22q52 0 69 -38.5t10 -92.5l-3 -30h-201z" />
    <glyph glyph-name="f" unicode="f" 
d="M419 667h62l5 32q33 211 -131 211q-166 0 -199 -206l-111 -704h68l55 331h151l10 62h-151l51 329q22 126 119 126q39 0 60 -21t22 -49t-2 -56z" />
    <glyph glyph-name="g" unicode="g" 
d="M366 -56l71 451q33 205 -131 205q-166 0 -199 -205l-29 -185q-32 -204 134 -204q30 0 56 6l42 13l-7 -43q-1 -4 -2.5 -20.5t-3.5 -25.5q-10 -40 -15 -52q-34 -73 -105 -73q-63 0 -78 52q-6 26 -3 53h-63q-16 -176 137 -176q164 0 196 204zM380 414l-34 -213
q-8 -49 -36 -86t-84 -37q-99 0 -79 123l34 213q6 44 36 79t81 35t70 -34t12 -80z" />
    <glyph glyph-name="h" unicode="h" horiz-adv-x="417" 
d="M129 0l87 547h85q56 0 69 -60q7 -32 -2 -84l-64 -403l60 -1l65 409q16 103 -8.5 150t-110.5 47h-85l48 305h-71l-144 -910h71z" />
    <glyph glyph-name="i" unicode="i" horiz-adv-x="165" 
d="M263 901h-75l-14 -84h76zM45 0h75l95 597h-75z" />
    <glyph glyph-name="j" unicode="j" horiz-adv-x="423" 
d="M520 901h-76l-13 -84h76zM469 597h-68l-64 -403q-8 -50 -35.5 -87.5t-83.5 -37.5q-39 0 -60 21t-21.5 49t1.5 55l6 36h-63l-4 -27q-33 -208 133 -208q83 0 132 52t64 146z" />
    <glyph glyph-name="k" unicode="k" horiz-adv-x="347" 
d="M396 603l-167 -298l74 -300h-65l-75 298l-47 -298h-70l143 905h70l-96 -605l169 298h64z" />
    <glyph glyph-name="l" unicode="l" horiz-adv-x="170" 
d="M45 0h80l144 910l-80 -1z" />
    <glyph glyph-name="m" unicode="m" horiz-adv-x="686" 
d="M703 394q33 208 -132 208q-72 0 -118 -39l-25 -20l-18 21q-31 38 -104 38q-166 0 -199 -208l-62 -394h70l64 403q20 125 119 125q35 0 56.5 -18.5t25.5 -54.5q2 -14 0 -22q-1 -7 -4 -20t-4 -19l-62 -394h70l63 403q22 125 120 125q99 0 79 -125l-64 -403h63z" />
    <glyph glyph-name="n" unicode="n" 
d="M375 0l63 394q33 208 -132 208q-166 0 -199 -208l-62 -394h70l64 403q20 125 119 125t80 -125l-64 -403h61z" />
    <glyph glyph-name="o" unicode="o" horiz-adv-x="423" 
d="M440 390q15 98 -19 153t-120 55q-79 0 -129 -55.5t-65 -152.5l-29 -184q-15 -97 17 -153t110 -56q87 0 138.5 55.5t67.5 153.5zM373 399l-32 -202q-19 -126 -116 -126t-75 126l32 202q19 125 115 125q97 0 76 -125z" />
    <glyph glyph-name="p" unicode="p" horiz-adv-x="396" 
d="M141 604l-137 -864h71l41 259h85q86 0 125 47t56 150l31 194q16 105 -8 159.5t-108 54.5h-156zM323 201q-9 -54 -24 -84q-32 -60 -89 -60h-85l77 484h85q57 0 70 -48q7 -29 -2 -88z" />
    <glyph glyph-name="q" unicode="q" horiz-adv-x="396" 
d="M447 604h-156q-84 0 -126 -54.5t-58 -159.5l-31 -194q-17 -103 8 -150t111 -47h85l-41 -259h71zM137 201l32 204q9 59 26 88q28 48 86 48h85l-77 -484h-85q-30 0 -47.5 17t-21.5 43q-7 31 2 84z" />
    <glyph glyph-name="r" unicode="r" 
d="M46 0h69l64 403q20 125 119 125q79 0 83 -83q0 -28 -5 -60l-3 -18h61l4 27q33 208 -132 208q-166 0 -197 -201q-3 -18 -63 -401z" />
    <glyph glyph-name="s" unicode="s" 
d="M450 480q6 63 -31 90t-113 27q-162 0 -183 -132q-10 -59 13.5 -97.5t73.5 -74.5q7 -6 21.5 -15.5t20.5 -14.5q24 -16 39 -31q65 -59 57 -106q-14 -86 -135 -86q-56 0 -79.5 27.5t-20.5 66.5h-47l-1 -7q-11 -69 27 -100.5t118 -31.5q164 0 186 132q8 56 -15 93t-73 73
q-15 10 -43 30q-19 13 -39 32q-60 60 -52 106q14 86 128 86q54 0 73.5 -15.5t21.5 -51.5h53z" />
    <glyph glyph-name="t" unicode="t" horiz-adv-x="467" 
d="M361 585l50 316l-70 -1l-50 -315h-153l-11 -66h154l-82 -519h69l83 519h153l10 66h-153z" />
    <glyph glyph-name="u" unicode="u" horiz-adv-x="415" 
d="M465 602h-62l-63 -403q-22 -125 -120 -125q-39 0 -59.5 21.5t-21 49t1.5 54.5l63 403h-64l-62 -394q-33 -208 127 -208q165 0 198 208z" />
    <glyph glyph-name="v" unicode="v" horiz-adv-x="362" 
d="M151 0l-13 589h56l4 -505l160 505h52l-191 -589h-68z" />
    <glyph glyph-name="w" unicode="w" horiz-adv-x="735" 
d="M733 596h51l-233 -595h-62l-44 480l-188 -480h-62l-56 595h55l41 -540l199 540h55v-2l40 -538z" />
    <glyph glyph-name="x" unicode="x" horiz-adv-x="398" 
d="M279 299l167 298h-64l-123 -216l-54 216h-65l73 -298l-168 -298h65l123 217l55 -217h65z" />
    <glyph glyph-name="y" unicode="y" 
d="M469 597h-61l-64 -403q-8 -50 -35.5 -87.5t-83.5 -37.5q-99 0 -79 125l64 403h-70l-63 -394q-33 -208 133 -208q36 0 57 7l42 13l-7 -44q-5 -36 -7 -46q-5 -28 -15 -54q-32 -73 -105 -73q-62 0 -77 52q-8 22 -4 54h-63q-16 -179 136 -179q165 0 198 208z" />
    <glyph glyph-name="z" unicode="z" horiz-adv-x="418" 
d="M384 68h-217l280 529h-307l-9 -63h218l-287 -533h310z" />
    <glyph glyph-name="braceleft" unicode="{" horiz-adv-x="241" 
d="M225 570l-7.5 -32.5t-7 -19.5t-12.5 -19t-20 -14l-51 -31l41 -31q20 -14 22.5 -37t-3.5 -59q-3 -22 -8 -67.5t-8 -67.5q-5 -53 2 -77q13 -43 59 -49l-9 -58h-35q-94 0 -81 120l20 181q1 7 3 22.5t3 24t-0.5 20.5t-7 19t-17 13t-29.5 8l10 65q22 5 37 12.5t23 21t11 20.5
t6.5 27.5t4.5 25.5l38 181q25 119 119 119h35l-9 -57q-48 -6 -75 -49q-17 -29 -26 -77q-10 -45 -28 -135z" />
    <glyph glyph-name="bar" unicode="|" horiz-adv-x="514" 
d="M396 976l-168 -1055h45l167 1055h-44z" />
    <glyph glyph-name="braceright" unicode="}" horiz-adv-x="240" 
d="M195 570q2 15 8 62t8 73q5 53 -2 77q-13 43 -59 49l9 57h35q94 0 81 -119l-20 -181q0 -5 -3 -25.5t-2.5 -27.5t4.5 -20.5t16 -21t33 -12.5l-10 -65q-19 -2 -32.5 -8t-21 -13t-13 -19t-7 -20.5t-4 -24t-4.5 -22.5l-38 -181q-26 -120 -119 -120h-35l9 58q48 6 75 49
q17 29 26 77q5 23 28 135q13 59 24 74q9 12 25 22l51 31l-41 31q-20 15 -23 32t2 53z" />
    <glyph glyph-name="asciitilde" unicode="~" horiz-adv-x="390" 
d="M92 409l15 17q40 40 76 40q26 0 52 -17q12 -8 38 -30q23 -19 35 -26q17 -10 31 -10q33 0 67 29q24 19 48 52l-16 23q-8 -10 -14 -16q-39 -39 -75 -39q-26 0 -52 17q-9 6 -38 30q-26 20 -35 25q-20 10 -31 10q-31 0 -68 -32q-20 -18 -48 -53z" />
    <glyph glyph-name="cent" unicode="&#xa2;" horiz-adv-x="403" 
d="M187 52l-10 -64h45l10 63l26 6q121 24 149 200l11 67h-61l-12 -76q-20 -124 -118 -124q-39 0 -59.5 21t-21 48.5t1.5 54.5l64 401q8 50 35.5 87.5t82.5 37.5q39 0 59.5 -21.5t20.5 -49.5t-2 -54l-6 -42h60l6 33q28 174 -87 202l-23 5l10 63h-45l-10 -65l-25 -6
q-118 -27 -146 -199l-60 -383q-28 -173 82 -200z" />
    <glyph glyph-name="sterling" unicode="&#xa3;" horiz-adv-x="404" 
d="M467 633h-61l11 70q2 25 2.5 53t-19.5 50t-59 22q-94 0 -116 -125q-15 -104 1 -193q2 -15 8 -42.5t7 -31.5q10 -35 11 -69l2 -25h137l-8 -51h-133l-7 -29q-14 -53 -48 -117.5t-65 -65.5h241l-12 -71h-324l11 69q59 14 95 68.5t46 113.5l6 32h-97l8 51h91l-6 41
q-3 18 -7.5 37t-10.5 42.5t-9 36.5q-22 91 -6 195q33 206 194 206q159 0 127 -206z" />
    <glyph glyph-name="yen" unicode="&#xa5;" horiz-adv-x="386" 
d="M519 888h-59l-204 -503l-36 503h-71l58 -578h-106l-6 -42h107l-10 -62h-107l-7 -42h107l-24 -156h68l24 156h107l7 42h-107l10 62h107l6 42h-107z" />
    <glyph glyph-name="copyright" unicode="&#xa9;" horiz-adv-x="843" 
d="M38 454q0 190 109 315.5t275 125.5t275 -125.5t109 -315.5q0 -191 -109 -316.5t-275 -125.5t-275 125.5t-109 316.5zM90 454q0 -165 94.5 -273.5t237.5 -108.5t237 108.5t94 273.5t-94 273t-237 108t-237.5 -108.5t-94.5 -272.5zM479 385h53v-56q0 -141 -115 -141
q-114 0 -114 141v247q0 143 114 143q115 0 115 -143v-31h-53v38q0 77 -59 77q-60 0 -60 -77v-259q0 -75 60 -75q59 0 59 75v61z" />
    <glyph glyph-name="registered" unicode="&#xae;" horiz-adv-x="843" 
d="M422 895q166 0 275 -125.5t109 -315.5q0 -191 -109 -316.5t-275 -125.5t-275 125.5t-109 316.5q0 190 109 315.5t275 125.5zM422 72q143 0 237 108.5t94 273.5t-94 273t-237 108t-237.5 -108.5t-94.5 -272.5q0 -165 94.5 -273.5t237.5 -108.5zM543 315v-59q0 -34 6 -60
h-58q-5 18 -5 61v59q0 49 -17.5 71.5t-55.5 22.5h-45v-214h-57v515h118q59 0 86.5 -30.5t27.5 -97.5v-11q0 -84 -52 -126q52 -40 52 -131zM419 469q67 0 67 80v23q0 80 -62 80h-56v-183h51z" />
    <glyph glyph-name="questiondown" unicode="&#xbf;" horiz-adv-x="362" 
d="M355 809l13 79h-64l-13 -79h64zM334 680h-55l-3 -21q-14 -82 -71 -159l-48 -63q-24 -29 -45 -63q-46 -76 -62 -171q-32 -206 128 -206q161 0 193 206l10 62h-61l-11 -71q-19 -125 -115 -125q-98 0 -77 125q15 94 58 171q28 48 53 80q7 10 22.5 30.5t23.5 31.5
q45 66 57 146q3 15 3 27z" />
    <glyph glyph-name="multiply" unicode="&#xd7;" horiz-adv-x="382" 
d="M266 473l-103 141l-24 -24l101 -141l-148 -143l17 -24l149 142l103 -142l25 24l-103 143l148 143l-17 23z" />
    <glyph glyph-name="divide" unicode="&#xf7;" horiz-adv-x="404" 
d="M344 694h-64l-13 -80h64zM449 469h-346l-6 -41h346zM278 282h-63l-13 -80h64z" />
    <glyph glyph-name="figuredash" unicode="&#x2012;" horiz-adv-x="406" 
d="M76 478l-10 -59h406l9 59h-405z" />
    <glyph glyph-name="endash" unicode="&#x2013;" horiz-adv-x="528" 
d="M76 478l-10 -59h528l10 59h-528z" />
    <glyph glyph-name="emdash" unicode="&#x2014;" horiz-adv-x="1119" 
d="M76 478l-10 -59h1119l10 59h-1119z" />
    <glyph glyph-name="quoteleft" unicode="&#x2018;" horiz-adv-x="213" 
d="M278 762l-19 -115h-101l18 109l72 133h32l-53 -127h51z" />
    <glyph glyph-name="quoteright" unicode="&#x2019;" horiz-adv-x="213" 
d="M179 774l18 115h101l-17 -109l-73 -133h-32l53 127h-50z" />
    <glyph glyph-name="quotesinglbase" unicode="&#x201a;" horiz-adv-x="213" 
d="M59 18l18 115h101l-17 -109l-73 -134h-32l53 128h-50z" />
    <glyph glyph-name="quotedblleft" unicode="&#x201c;" horiz-adv-x="381" 
d="M278 762l-19 -115h-101l18 109l72 133h32l-53 -127h51zM446 762l-19 -115h-102l18 109l72 133h33l-53 -127h51z" />
    <glyph glyph-name="quotedblright" unicode="&#x201d;" horiz-adv-x="381" 
d="M179 774l18 115h101l-17 -109l-73 -133h-32l53 127h-50zM346 774l18 115h102l-17 -109l-73 -133h-33l53 127h-50z" />
    <glyph glyph-name="quotedblbase" unicode="&#x201e;" horiz-adv-x="381" 
d="M59 18l18 115h101l-17 -109l-73 -134h-32l53 128h-50zM226 18l18 115h102l-17 -109l-73 -134h-33l53 128h-50z" />
    <glyph glyph-name="guilsinglleft" unicode="&#x2039;" horiz-adv-x="162" 
d="M266 777h-60l-76 -214q-3 -8 -25 -61q-13 -31 -16 -52q-4 -29 -1 -56q5 -50 5 -65l7 -227h60l-5 215q-1 13 -3 33.5t-2 28.5q-3 33 2 71q5 32 20 68q2 6 10.5 25.5t13.5 32.5z" />
    <glyph glyph-name="guilsinglright" unicode="&#x203a;" horiz-adv-x="162" 
d="M202 777h-60l7 -201q1 -13 3 -31.5t2 -26.5q4 -36 -1 -68q-7 -39 -21 -71q-2 -6 -10.5 -27t-13.5 -35l-74 -215h61l78 227q3 11 25 65q12 26 17 56q3 19 1 52q-6 54 -6 61z" />
    <glyph glyph-name="fraction" unicode="&#x2044;" horiz-adv-x="77" 
d="M-156 8l457 891h75l-458 -891h-74z" />
    <glyph glyph-name="Euro" unicode="&#x20ac;" horiz-adv-x="454" 
d="M132 537h32l23 148q33 200 191 200q161 0 128 -200l-6 -40h-69l8 49q18 113 -69 113t-105 -113l-25 -157h177l-7 -45h-177l-11 -70h177l-7 -45h-177l-26 -164q-18 -112 69 -112t105 112l8 55h69l-7 -46q-31 -200 -192 -200q-158 0 -127 200l25 155h-32l7 45h32l11 70h-32
z" />
    <glyph glyph-name="trademark" unicode="&#x2122;" horiz-adv-x="671" 
d="M21 828v61h228v-61h-84v-372h-60v372h-84zM411 889l58 -314h18l53 314h93v-433h-55v317l-19 1l-53 -318h-60l-60 316l-19 -1v-315h-50v433h94z" />
    <glyph glyph-name="minus" unicode="&#x2212;" horiz-adv-x="404" 
d="M449 469h-346l-6 -41h346z" />
    <glyph glyph-name="_FSHallmark" horiz-adv-x="848" 
d="M808 790v-91h-767v91h767zM643 270q-35 0 -63 8q-32 10 -54 26q-24 17 -38 43q-15 25 -15 61l89 -2q0 -2 5 -14q1 -12 13 -24q11 -11 23 -15q15 -9 43 -9q32 0 49 10q18 10 18 25q0 29 -73 42q-79 23 -112 42q-46 22 -46 76q0 42 31 69q25 21 67 37q44 7 63 7
q40 0 86 -18q45 -18 62 -60q10 -27 10 -45h-92q0 9 -7 21q-5 7 -17 16q-3 1 -10.5 4.5t-11.5 4.5q-3 0 -10.5 2t-11.5 2q-21 0 -44 -13q-18 -11 -18 -27q0 -29 17 -37q24 -12 40 -15l34 -9l28 -6q24 -6 27 -6q17 -4 22 -7q14 -6 19 -9q21 -13 29 -25q11 -18 12 -41
q1 -24 -10 -45q-22 -40 -68 -55q-41 -14 -86 -14zM142 565v-87h185v-84h-185v-124h-101v381h323v-86h-222zM401 272q-16 0 -30 14q-16 13 -16 30q0 20 14 33q13 12 32 12q20 0 37 -14q16 -13 16 -31t-16 -32q-16 -12 -37 -12zM807 223v-91h-767v91h767z" />
    <glyph glyph-name="_Fontastica" horiz-adv-x="660" 
d="M137 700v-230h322v-86h-322v-162h-96q-1 2 -1 4v559h419v-85h-322zM197 540v87h324v158h95v-561h-419v86h324v230h-324zM528 132q-1 0 -3.5 1t-6 2t-6.5 2q-7 12 -8 19q0 12 7 19q9 9 17 9q11 0 22 -9l-5 -7l-4 4q-1 1 -9 1h-4l-2 -1q-1 0 -2.5 -1t-2.5 -3q-5 -5 -5 -9
q0 -5 3 -11q6 -6 9 -6q11 0 17 6l5 -6q-8 -10 -22 -10zM53 173v-13h22v-7h-22v-19h-12v47h35v-8h-23zM119 131q-6 0 -10 3q-15 5 -15 21q0 13 7 20q6 6 19 6q17 0 24 -11q8 -11 2 -22q-4 -13 -21 -16zM207 132q-1 0 -2 1t-2.5 2t-2.5 2l-6 8q0 1 -5 6l-8 12v-29h-12v47h9
q4 -1 5 -5l11 -13q2 -3 6 -7.5t4 -5.5v31h10v-47h-4q-2 -2 -3 -2zM233 173v8h41v-8h-15v-39h-10v39h-16zM376 132q-14 0 -22 9v1l1 2q0 1 2 4l15 -6h7l4 3q0 8 -11 10q-3 0 -3 1h-5q-7 3 -7 12q-3 6 7 12q1 0 4 0.5t6 0.5q11 0 20 -3l-4 -8l-4 2h-1h-4q-1 0 -2 1h-7l-3 -1
q-1 -2 3 -9q3 0 7.5 -2t5.5 -2q9 0 9 -11q0 -12 -8 -14q-1 -2 -10 -2zM409 173v8h43v-8h-15v-39h-11v39h-17zM483 181v-47h-11v47h11zM620 134h-11l-5 10h-23l-5 -10h-10q12 20 19 47h13l11 -22q1 -2 2.5 -7t2.5 -7q0 -1 2 -5.5t4 -5.5zM298 137v-1l-2 -2h-10l20 46h12
q0 -4 4 -10q1 -1 2 -2.5t1.5 -3t1.5 -3t1 -3.5q4 -12 4 -13t5 -11h-12q-1 1 -1 3l-2 7h-24v-7zM120 142h5q9 4 9 14v2q0 8 -4 12q-3 3 -11 3q-1 -1 -4 -1l-1 -1q-1 -1 -3 -3.5t-4 -4.5q-6 -5 -1 -10q3 -11 14 -11zM311 172l-9 -19h17l-1 3q-2 1 -3 3q0 1 -1 1q-1 3 -1 6
q-1 1 -1 3t-1 3zM592 172l-7 -19h15l-2 3q0 3 -1 4q-3 3 -3 6q0 4 -2 6z" />
    </font>
</defs>
</svg>
